<?xml version="1.0" standalone="no"?>
<!DOCTYPE svg PUBLIC "-//W3C//DTD SVG 1.1//EN" "http://www.w3.org/Graphics/SVG/1.1/DTD/svg11.dtd" >
<svg xmlns="http://www.w3.org/2000/svg">
<metadata>Generated by IcoMoon</metadata>
<defs>
<font id="icomoonuser" horiz-adv-x="1024">
<font-face units-per-em="1024" ascent="960" descent="-64" />
<missing-glyph horiz-adv-x="1024" />
<glyph unicode="&#x20;" horiz-adv-x="512" d="" />
<glyph unicode="&#xe900;" glyph-name="success" d="M517.281 876.080c-236.039 0-428.080-192.041-428.080-428.080s192.041-428.081 428.080-428.081c236.042 0 428.081 192.041 428.081 428.081s-192.039 428.080-428.081 428.080zM517.281 93.286c-195.568 0-354.713 159.145-354.713 354.714 0 195.567 159.145 354.713 354.713 354.713s354.715-159.146 354.715-354.713c0-195.569-159.146-354.714-354.715-354.714zM702.794 599.833c-15.885 12.593-38.955 9.98-51.576-5.932l-168.838-212.892-101.036 107.779c-13.823 14.813-37.076 15.52-51.865 1.701-14.788-13.876-15.52-37.102-1.672-51.866l130.116-138.818c6.95-7.421 16.67-11.6 26.755-11.6 0.523 0 1.017 0 1.541 0.028 10.635 0.444 20.616 5.511 27.227 13.871l195.305 246.205c12.568 15.886 9.902 38.931-5.958 51.524z" />
<glyph unicode="&#xe901;" glyph-name="prev" d="M667.947 25.734c10.004 0 20.027 3.816 27.668 11.391 15.297 15.191 15.297 39.804 0 55.011l-365.146 362.624 365.146 362.602c15.297 15.189 15.297 39.822 0 54.991-15.301 15.209-40.081 15.209-55.376 0l-392.827-390.11c-15.285-15.205-15.285-39.784 0-54.97l392.826-390.149c7.643-7.576 17.679-11.391 27.709-11.391z" />
<glyph unicode="&#xe902;" glyph-name="circle" d="M511.98-4.91c-61.55 0-121.267 12.058-177.492 35.839-54.3 22.966-103.062 55.842-144.933 97.713-41.872 41.871-74.747 90.633-97.714 144.933-23.781 56.226-35.839 115.943-35.839 177.492s12.058 121.267 35.839 177.492c22.967 54.3 55.843 103.062 97.714 144.933 41.871 41.872 90.634 74.747 144.933 97.714 56.226 23.782 115.943 35.839 177.492 35.839s121.267-12.059 177.492-35.839c54.3-22.967 103.062-55.843 144.933-97.714s74.747-90.634 97.713-144.933c23.782-56.226 35.839-115.943 35.839-177.492s-12.058-121.267-35.839-177.492c-22.966-54.3-55.842-103.062-97.713-144.933s-90.633-74.747-144.933-97.713c-56.227-23.781-115.943-35.839-177.492-35.839zM511.98 876.349c-234.501 0-425.28-190.78-425.28-425.28s190.78-425.28 425.28-425.28c234.5 0 425.28 190.78 425.28 425.28s-190.78 425.28-425.28 425.28z" />
<glyph unicode="&#xe903;" glyph-name="smile" d="M513.848-10.93c-254.691 0-461.895 207.205-461.895 461.894 0 254.692 207.204 461.897 461.895 461.897s461.895-207.205 461.895-461.897c0-254.689-207.206-461.894-461.895-461.894zM513.848 857.844c-224.353 0-406.881-182.525-406.881-406.881 0-224.353 182.528-406.879 406.881-406.879 224.351 0 406.88 182.526 406.88 406.879 0 224.356-182.529 406.881-406.88 406.881zM382.041 542.806c0-22.148-21.553-40.093-48.138-40.093v0c-26.584 0-48.138 17.945-48.138 40.093v40.368c0 22.144 21.554 40.1 48.138 40.1v0c26.585 0 48.138-17.956 48.138-40.1v-40.368zM732.76 542.806c0-22.148-21.554-40.093-48.138-40.093v0c-26.584 0-48.136 17.945-48.136 40.093v40.368c0 22.144 21.552 40.1 48.136 40.1v0c26.584 0 48.138-17.956 48.138-40.1v-40.368zM513.436 179.562c-111.433 0-210.982 74.649-242.086 181.532l25.547 7.435c27.819-95.596 116.863-162.362 216.539-162.362 100.996 0 190.361 67.891 217.316 165.097l25.639-7.109c-30.139-108.686-130.046-184.594-242.955-184.594z" />
<glyph unicode="&#xe904;" d="M947.086 461.815c0-240.303-194.804-435.107-435.107-435.107s-435.107 194.804-435.107 435.107c0 240.303 194.804 435.107 435.107 435.107s435.107-194.804 435.107-435.107z" />
<glyph unicode="&#xe905;" d="M729.533 461.815c0-120.152-97.402-217.554-217.554-217.554s-217.554 97.402-217.554 217.554c0 120.152 97.402 217.554 217.554 217.554s217.554-97.402 217.554-217.554z" />
<glyph unicode="&#xe906;" d="M947.086 461.815c0-240.303-194.804-435.107-435.107-435.107s-435.107 194.804-435.107 435.107c0 240.303 194.804 435.107 435.107 435.107s435.107-194.804 435.107-435.107z" />
<glyph unicode="&#xe907;" d="M729.533 461.815c0-120.152-97.402-217.554-217.554-217.554s-217.554 97.402-217.554 217.554c0 120.152 97.402 217.554 217.554 217.554s217.554-97.402 217.554-217.554z" />
<glyph unicode="&#xe908;" d="M512.493 903.052c249.909 0 452.492-202.576 452.492-452.494 0-249.882-202.583-452.494-452.492-452.494-249.914 0-452.494 202.611-452.494 452.494 0 249.917 202.58 452.494 452.494 452.494z" />
<glyph unicode="&#xe909;" d="M299.549 471.144l-41.152-41.138 164.539-164.539 349.671 349.648-41.137 41.109-308.534-308.494-123.387 123.414z" />
<glyph unicode="&#xe90a;" d="M515.503 903.052c249.909 0 452.492-202.576 452.492-452.494 0-249.882-202.583-452.494-452.492-452.494-249.914 0-452.494 202.61-452.494 452.494 0 249.917 202.58 452.494 452.494 452.494z" />
<glyph unicode="&#xe90b;" d="M302.559 471.144l-41.152-41.138 164.539-164.539 349.671 349.648-41.137 41.109-308.534-308.494-123.387 123.414z" />
<glyph unicode="&#xe90c;" glyph-name="home" d="M962.478 592.494l-420.713 287.702c-13.705 9.364-32.070 9.364-45.777 0l-420.71-287.702c-17.752-12.138-21.89-35.776-9.251-52.801 12.613-17.046 37.252-21.024 55.004-8.885l43.343 29.638v-448.759c0-33.071 28.048-60.006 62.507-60.006h584.017c34.458 0 62.505 26.933 62.505 60.006v448.759l43.321-29.638c6.932-4.729 14.933-7.025 22.842-7.025 12.32 0 24.481 5.523 32.163 15.909 12.637 17.026 8.501 40.663-9.251 52.802zM595.975 127.414h-154.17v232.814h154.169v-232.814zM794.511 127.414h-119.647v248.564c0 33.070-28.045 59.98-62.504 59.98h-186.944c-34.458 0-62.505-26.91-62.505-59.98v-248.564h-119.646v486.991l275.61 188.467 275.635-188.491v-486.968z" />
<glyph unicode="&#xe90d;" glyph-name="interview" d="M910.82 286.362c-11.057 46.566-129.819 88.509-235.571 24.703-105.509-63.712-207.863-83.571-196.821-130.138 11.044-46.567 116.795-60.728 236.196-31.671 119.399 29.175 207.229 90.539 196.195 137.107zM969.615 543.797c-7.333 27.736-79.852 32.163-161.955 9.809-82.103-22.356-136.594-101.231-129.232-128.99 7.334-27.758 79.681-28.126 161.856-5.723 82.083 22.281 136.668 97.095 129.331 124.904zM295.062 761.883c47.14-2.861 79.472-105.975 72.197-230.364-7.289-124.389-51.385-222.904-98.552-220.042-47.153 2.813-79.473 105.949-72.185 230.313 7.275 124.341 51.398 222.905 98.539 220.092zM534.475 865.802c28.246-2.447 45.242-74.13 37.978-160.097-7.235-85.942-74.226-154.179-102.462-151.684-28.213 2.397-41.235 74.693-33.995 160.613 7.275 85.94 70.252 153.614 98.479 151.168zM675.249 831.683c0 0-68.36-468.576-615.7-694.194 0 0-42.764-69.385 102.622-69.385 0.001 0 637.101 264.63 513.078 763.579z" />
<glyph unicode="&#xe90e;" glyph-name="apply" d="M267.764 664.479h445.61v-65.113h-445.61v65.113zM267.764 534.217h254.642v-65.112h-254.642v65.112zM267.764 403.952h191.012v-65.104h-191.012v65.104zM534.283 101.309h-370.874v702.996h654.321v-323.943l45.976-35.274v405.193h-746.276v-794.948h446.814zM790.824 171.59l-0.122 0.172c-18.655-29.229-50.912-48.586-87.52-48.586-57.607 0-104.449 47.917-104.449 106.822 0 58.92 46.842 106.873 104.449 106.873 20.522 0 39.675-6.090 55.833-16.589l32.638 33.252c-24.847 18.425-55.429 29.315-88.47 29.315-82.936 0-150.428-68.566-150.428-152.852 0-84.234 67.492-152.796 150.428-152.796 82.934 0 150.426 68.562 150.426 152.796 0 1.816-0.043 3.625-0.105 5.427l-62.68-63.834zM615.441 255.057l36.419 37.137 103.182-105.115-36.417-37.098-103.184 105.076zM717.188 149.983l-36.416 37.097 206.466 210.317 36.418-37.089-206.468-210.325z" />
<glyph unicode="&#xe90f;" glyph-name="attentionme" d="M495.444 271.555c-54.363 0-105.425 14.098-149.764 38.811h-46.201v-234.337l193.755 130.983 198.171-130.983v234.337h-46.198c-44.338-24.712-95.4-38.811-149.763-38.811zM763.281 579.651c0-147.922-119.915-267.837-267.837-267.837s-267.837 119.915-267.837 267.837c0 147.922 119.915 267.837 267.837 267.837s267.837-119.915 267.837-267.837z" />
<glyph unicode="&#xe910;" glyph-name="resumelist" d="M908.594 33.222h-804.649v804.649h804.649v-804.649zM155.11 84.388h702.319v702.319h-702.319v-702.319zM772.501 194.268v-0.053c0-14.275-11.155-25.886-24.952-25.886h-482.558c-13.795 0-24.953 11.61-24.953 25.886v0.053h-0.026c0 0 0 94.215 66.468 128.514 42.049 21.677 25.857 4.050 77.493 26.312 51.635 22.102 63.859 29.824 63.859 29.824l0.479 51.078c0 0-19.333 15.336-25.326 63.377-12.116-3.62-16.11 14.754-16.829 26.364-0.64 11.292-7.005 46.549 7.776 43.353-3.036 23.541-5.191 44.737-4.126 55.976 3.701 39.465 40.37 80.69 96.852 83.698 66.442-3.009 92.777-44.233 96.478-83.645 1.067-11.293-1.304-32.489-4.312-55.977 14.755 3.143 8.335-32.008 7.615-43.3-0.638-11.716-4.739-29.932-16.805-26.309-6.016-48.092-25.35-63.272-25.35-63.272l0.453-50.808c0 0 12.198-7.245 63.834-29.401 51.632-22.157 35.441-5.594 77.492-27.27 66.468-34.299 66.468-128.514 66.468-128.514h-0.030z" />
<glyph unicode="&#xe911;" glyph-name="favorites" d="M788.151 22.257c-2.606 0-5.222 0.621-7.616 1.881l-268.555 141.19-268.556-141.19c-5.517-2.901-12.202-2.416-17.244 1.246s-7.567 9.871-6.513 16.014l51.29 299.041-217.266 211.783c-4.463 4.35-6.069 10.857-4.143 16.784s7.050 10.247 13.217 11.143l300.255 43.629 134.278 272.079c2.758 5.588 8.449 9.127 14.682 9.127s11.924-3.539 14.682-9.127l134.279-272.079 300.253-43.629c6.167-0.895 11.291-5.216 13.217-11.143s0.32-12.433-4.143-16.784l-217.266-211.782 51.289-299.041c1.053-6.143-1.472-12.35-6.513-16.014-2.852-2.073-6.231-3.128-9.626-3.128zM511.98 200.197c2.618 0 5.234-0.626 7.619-1.881l246.81-129.757-47.137 274.827c-0.912 5.311 0.849 10.73 4.709 14.492l199.674 194.635-275.942 40.096c-5.332 0.775-9.943 4.125-12.328 8.957l-123.406 250.048-123.406-250.048c-2.385-4.832-6.995-8.182-12.328-8.957l-275.944-40.095 199.674-194.635c3.859-3.762 5.62-9.181 4.709-14.492l-47.137-274.827 246.811 129.757c2.385 1.254 5.002 1.88 7.62 1.88z" />
<glyph unicode="&#xe912;" glyph-name="account" d="M767.348 73.72h-516.157c-47.445 0-86.027 39.044-86.027 87.063v609.46c0 48.020 38.584 87.061 86.027 87.061h387.138c11.862 0 21.479-9.743 21.479-21.76 0-12.014-9.617-21.759-21.479-21.759h-387.138c-23.721 0-43.015-19.555-43.015-43.543v-609.46c0-23.998 19.293-43.537 43.015-43.537h516.157c23.722 0 43.013 19.539 43.013 43.537v348.273c0 12.017 9.615 21.761 21.542 21.761 11.859 0 21.472-9.743 21.472-21.761v-348.273c0.001-48.018-38.56-87.063-86.026-87.063zM337.243 269.609c-5.533 0-11.050 2.114-15.236 6.392-8.401 8.49-8.401 22.278 0 30.777l537.673 544.154c8.424 8.503 22.049 8.503 30.427 0 8.4-8.508 8.4-22.264 0-30.786l-537.678-544.145c-4.232-4.277-9.698-6.392-15.186-6.392z" />
<glyph unicode="&#xe913;" glyph-name="managerialposition" d="M879.342-6.179h-734.726c-23.41 0-42.386 19.063-42.386 42.58v738.041c0 23.507 18.975 42.579 42.386 42.579h70.648v-42.579c0-47.034 37.962-85.159 84.783-85.159 46.811 0 84.773 38.124 84.773 85.159v42.579h42.386v-42.579c0-47.034 37.951-85.159 84.774-85.159 46.821 0 84.772 38.124 84.772 85.159v42.579h42.387v-42.579c0-47.034 37.961-85.159 84.773-85.159 46.822 0 84.783 38.124 84.783 85.159v42.579h70.648c23.41 0 42.385-19.071 42.385-42.579v-738.040c-0.001-23.518-18.976-42.581-42.386-42.581zM766.309 575.738h-508.648c-23.411 0-42.397-19.062-42.397-42.579s18.985-42.579 42.397-42.579h508.648c23.41 0 42.385 19.062 42.385 42.579s-18.975 42.579-42.385 42.579zM766.309 391.229h-508.648c-23.411 0-42.397-19.072-42.397-42.58 0-23.516 18.985-42.579 42.397-42.579h508.648c23.41 0 42.385 19.063 42.385 42.579 0 23.507-18.975 42.58-42.385 42.58zM773.376 206.718h-522.792c-19.507 0-35.319-15.89-35.319-35.483s15.812-35.482 35.319-35.482h522.792c19.505 0 35.318 15.89 35.318 35.482s-15.813 35.483-35.318 35.483zM723.911 731.863c-23.4 0-42.385 19.053-42.385 42.579v85.159c0 23.507 18.985 42.579 42.385 42.579 23.412 0 42.398-19.071 42.398-42.579v-85.159c0-23.527-18.985-42.579-42.398-42.579zM511.98 731.863c-23.411 0-42.386 19.053-42.386 42.579v85.159c0 23.507 18.975 42.579 42.386 42.579s42.386-19.071 42.386-42.579v-85.159c0-23.527-18.974-42.579-42.386-42.579zM300.048 731.863c-23.411 0-42.386 19.053-42.386 42.579v85.159c0 23.507 18.975 42.579 42.386 42.579 23.401 0 42.386-19.071 42.386-42.579v-85.159c0-23.527-18.985-42.579-42.386-42.579z" />
<glyph unicode="&#xe914;" glyph-name="search" d="M690.025 804.781c-138.701 136.033-364.165 135.449-503.602-1.306-139.439-136.758-140.022-357.914-1.322-493.933 138.702-136.036 364.179-135.451 503.616 1.289 139.41 136.771 140.007 357.916 1.308 493.949zM432.736 258.812c-163.552 0-296.124 132.574-296.124 296.141 0 163.552 132.572 296.127 296.124 296.127s296.141-132.575 296.141-296.127c0-163.566-132.59-296.141-296.141-296.141zM949.979 64.688c-17.057-16.74-44.674-16.822-61.651-0.157l-225.391 234.814c-16.977 16.655-3.126 16.196 13.947 32.937 17.085 16.754 30.907 16.821 47.9 0.167l225.363-207.283c17.002-16.666 16.918-43.728-0.167-60.478z" />
<glyph unicode="&#xe915;" glyph-name="setup" d="M939.21 508.982c-37.45 20.116-92.702 37.217-159.784 49.786 38.617 56.393 65.614 107.584 77.771 148.213l-86.242 86.237c-40.618-12.152-91.809-39.15-148.191-77.755-12.569 67.167-29.675 122.45-49.802 159.768h-121.965c-20.132-37.318-37.238-92.596-49.802-159.768-56.387 38.605-107.573 65.603-148.191 77.755l-86.242-86.237c12.152-40.623 39.15-91.809 77.755-148.196-67.167-12.564-122.451-29.67-159.768-49.801v-121.97c37.317-20.133 92.601-37.222 159.768-49.791-38.61-56.393-65.603-107.579-77.755-148.191l86.242-86.253c40.618 12.158 91.804 39.156 148.191 77.761 12.564-67.167 29.671-122.451 49.802-159.768h121.965c20.133 37.328 37.239 92.611 49.808 159.788 56.324-38.543 107.477-65.529 148.186-77.783l86.242 86.253c-12.253 40.707-39.24 91.871-77.798 148.201 67.098 12.569 122.361 29.67 159.811 49.781v121.97zM511.98 287.789c-88.482 0-160.212 71.73-160.212 160.212s71.73 160.212 160.212 160.212c88.481 0 160.212-71.73 160.212-160.212s-71.732-160.212-160.212-160.212z" />
<glyph unicode="&#xe916;" glyph-name="eye" d="M956.14 477.889c-0.016-0.356-0.043-0.69-0.074-1.023-0.029-0.174-0.044-0.341-0.058-0.509-0.013-0.254-0.070-0.508-0.102-0.746-0.044-0.283-0.070-0.567-0.128-0.864 0-0.037 0-0.073 0-0.108-1.105-6.437-4.339-12.45-9.288-17.101-9.316-10.346-19.503-20.046-29.745-29.57-55.341-51.41-118.867-97.269-188.414-130.548-44.462-21.25-91.924-38.394-141.17-46.65-54.168-9.060-108.377-8.611-162.255 2.111-93.212 18.552-177.648 64.607-251.489 119.68-34.289 25.566-67.996 53.535-96.348 84.978-12.39 13.763-12.39 30.052 0 43.808 9.316 10.339 19.502 20.053 29.745 29.564 55.357 51.417 118.867 97.285 188.43 130.548 44.43 21.256 91.908 38.409 141.17 46.658 54.15 9.061 108.347 8.604 162.237-2.103 93.199-18.544 177.635-64.622 251.494-119.688 34.271-25.559 67.978-53.542 96.318-84.986 4.962-4.644 8.199-10.673 9.284-17.1 0-0.029 0-0.080 0.032-0.108 0.042-0.282 0.070-0.566 0.115-0.865 0.029-0.238 0.087-0.492 0.102-0.739 0.013-0.168 0.027-0.342 0.042-0.516 0.029-0.341 0.060-0.675 0.087-1.023 0.031-0.515 0.058-1.023 0.058-1.544 0-0.532-0.014-1.047-0.042-1.554zM511.983 638.182c-91.994 0-166.577-68.227-166.577-152.394 0-84.159 74.582-152.386 166.577-152.386s166.564 68.227 166.564 152.386c-0.001 84.167-74.569 152.394-166.564 152.394zM511.983 409.595c-45.997 0-83.289 34.114-83.289 76.193 0 42.087 37.292 76.193 83.289 76.193s83.275-34.107 83.275-76.193c-0.001-42.079-37.279-76.193-83.275-76.193z" />
<glyph unicode="&#xe917;" glyph-name="down" d="M928.374 51.305h-832.79c-23.796 0-43.075 19.554-43.075 43.68v276.616c0 0.005 0 0.012 0 0.019 0 5.525 1.024 10.808 2.872 15.673l114.534 304.897c5.999 16.826 21.87 28.865 40.535 28.865v0h215.378v-87.358h-185.686l-82.048-218.394h138.509c23.792 0 43.075-19.565 43.075-43.684v-43.68h344.602v43.68c0 24.119 19.279 43.684 43.076 43.684h138.508l-82.049 218.394h-185.687v87.358h215.376c18.667 0 34.539-12.039 40.538-28.865l114.534-304.897c1.848-4.866 2.873-10.148 2.873-15.673v0 0-276.635c-0.001-24.125-19.282-43.68-43.076-43.68zM655.563 531.78c0-12.063-4.82-22.987-12.614-30.891l-100.509-101.919c-7.796-7.897-18.564-12.794-30.463-12.794-11.895 0-22.664 4.898-30.461 12.794l-100.507 101.919c-7.794 7.903-12.614 18.827-12.614 30.891 0 24.121 19.28 43.679 43.075 43.679 11.896 0 22.667-4.891 30.461-12.795l26.972-27.351v273.098c0 24.128 19.283 43.685 43.075 43.685 23.795 0 43.077-19.557 43.077-43.685v-273.098l26.971 27.351c7.797 7.904 18.565 12.795 30.464 12.795 23.791 0 43.073-19.557 43.073-43.679z" />
<glyph unicode="&#xe918;" glyph-name="lock" d="M780.921 22.718h-590.686c-50.105 0-90.868 41.677-90.868 92.915v278.777c0 51.268 40.762 92.914 90.868 92.914h590.686c50.106 0 90.87-41.648 90.87-92.914v-278.777c0-51.238-40.763-92.915-90.87-92.915zM190.235 440.883c-25.057 0-45.418-20.852-45.418-46.472v-278.777c0-25.589 20.362-46.443 45.418-46.443h590.686c25.055 0 45.419 20.854 45.419 46.443v278.777c0 25.621-20.364 46.472-45.419 46.472h-590.686zM212.948 440.883c-12.556 0-22.713 10.369-22.713 23.221v139.388c0 166.516 132.492 301.996 295.346 301.996 162.85 0 295.34-135.48 295.34-301.996 0-12.821-10.185-23.222-22.712-23.222-12.582 0-22.739 10.401-22.739 23.222 0 140.897-112.092 255.523-249.889 255.523-137.803 0-249.9-114.626-249.9-255.523v-139.388c-0.001-12.852-10.155-23.221-22.733-23.221zM485.58 347.968c25.077 0 45.448-20.828 45.448-46.47 0-25.676-20.371-46.473-45.448-46.473-25.082 0-45.451 20.798-45.451 46.473 0 25.643 20.369 46.47 45.451 46.47zM485.58 301.497c12.55 0 22.708-10.401 22.708-23.223v-92.943c0-12.823-10.158-23.225-22.708-23.225-12.557 0-22.711 10.402-22.711 23.225v92.943c0 12.822 10.154 23.223 22.711 23.223z" />
<glyph unicode="&#xe919;" glyph-name="crying" d="M614.363 182.455h-177.652c-21.967 0-39.839 17.872-39.839 39.839v19.739c0 21.968 17.872 39.84 39.839 39.84h177.652c21.968 0 39.841-17.872 39.841-39.84v-19.739c0-21.967-17.873-39.839-39.841-39.839zM436.711 261.406c-10.682 0-19.373-8.691-19.373-19.374v-19.739c0-10.682 8.691-19.373 19.373-19.373h177.652c10.683 0 19.375 8.69 19.375 19.373v19.739c0 10.682-8.691 19.374-19.375 19.374h-177.652zM282.595 425.95c-17.261 0-31.305 14.041-31.305 31.297 0 8.365 3.255 16.227 9.168 22.139 5.912 5.913 13.774 9.17 22.137 9.17 17.263 0 31.307-14.045 31.307-31.309 0-17.256-14.044-31.297-31.307-31.297zM282.595 478.323c-5.629 0-10.922-2.193-14.901-6.172-3.98-3.98-6.172-9.272-6.171-14.903 0-11.615 9.452-21.064 21.072-21.064s21.074 9.449 21.074 21.064c0 11.622-9.453 21.075-21.074 21.075zM711.174 463.744c0 17.264 14.045 31.309 31.307 31.309 8.365 0 16.225-3.257 22.137-9.17 5.913-5.912 9.169-13.775 9.168-22.139 0-17.257-14.043-31.297-31.305-31.297s-31.307 14.041-31.307 31.297zM721.407 463.744c0-11.615 9.453-21.064 21.074-21.064s21.072 9.45 21.072 21.064c0.001 5.632-2.191 10.925-6.17 14.903s-9.272 6.172-14.902 6.172c-11.621 0.001-21.074-9.452-21.074-21.075zM520.422 5.629c-59.5 0-117.227 11.656-171.577 34.644-52.49 22.202-99.629 53.982-140.107 94.46s-72.259 87.615-94.46 140.106c-22.99 54.352-34.645 112.079-34.645 171.579s11.656 117.227 34.645 171.578c22.202 52.49 53.982 99.629 94.46 140.107s87.617 72.259 140.107 94.46c54.35 22.989 112.078 34.645 171.577 34.645 59.501 0 117.228-11.656 171.578-34.645 52.49-22.202 99.628-53.982 140.106-94.46 40.477-40.477 72.258-87.615 94.459-140.106 22.989-54.351 34.644-112.078 34.644-171.578s-11.656-117.228-34.644-171.579c-22.201-52.49-53.982-99.628-94.459-140.106s-87.615-72.258-140.106-94.46c-54.351-22.989-112.078-34.645-171.578-34.645zM520.422 862.648c-229.51 0-416.23-186.72-416.23-416.23s186.72-416.23 416.23-416.23c229.508 0 416.228 186.721 416.228 416.23s-186.72 416.23-416.228 416.23zM342.479 614.659c-46.625 0-84.423-37.798-84.423-84.423s37.798-84.422 84.423-84.422 84.423 37.797 84.423 84.422-37.798 84.423-84.423 84.423zM318.642 526.801c-16.592 0-30.042 13.45-30.042 30.042s13.45 30.042 30.042 30.042c16.591 0 30.041-13.45 30.041-30.042s-13.45-30.042-30.041-30.042zM369.315 488.556c-7.854 0-14.221 6.366-14.221 14.22s6.367 14.221 14.221 14.221 14.221-6.367 14.221-14.221c0-7.854-6.368-14.22-14.221-14.22zM598.175 536.734c0-46.625 37.799-84.422 84.423-84.422 46.626 0 84.423 37.797 84.423 84.422s-37.797 84.423-84.423 84.423c-46.624 0-84.423-37.798-84.423-84.423zM676.394 563.341c0 16.592 13.45 30.042 30.041 30.042s30.041-13.45 30.041-30.042-13.45-30.042-30.041-30.042-30.041 13.449-30.041 30.042zM641.541 509.274c0 7.855 6.368 14.221 14.22 14.221 7.855 0 14.222-6.367 14.222-14.221s-6.368-14.22-14.222-14.22c-7.852-0.001-14.22 6.365-14.22 14.22z" />
<glyph unicode="&#xe91a;" glyph-name="mobilphone" d="M523.404 59.243c-46.767 0-84.815 34.603-84.815 77.137s38.048 77.141 84.815 77.141c46.722 0 84.734-34.605 84.734-77.141-0.001-42.534-38.012-77.137-84.734-77.137zM523.404 193.053c-35.482 0-64.349-25.424-64.349-56.675 0-31.248 28.866-56.671 64.349-56.671 35.437 0 64.268 25.423 64.268 56.671-0.001 31.252-28.831 56.675-64.268 56.675zM184.024 279.154h655.91v-44.597h-655.91v44.597zM839.934-10.696h-655.91v904.344h655.91v-904.344zM218.817 24.096h586.325v834.759h-586.325v-834.759z" />
<glyph unicode="&#xe91b;" d="M526.817 858.857c227.177 0 411.369-184.167 411.369-411.369 0-227.177-184.192-411.368-411.369-411.368s-411.369 184.191-411.369 411.368c0 227.201 184.192 411.369 411.369 411.369z" />
<glyph unicode="&#xe91c;" d="M526.817 690.581c30.981 0 56.090-20.938 56.090-46.749s-25.109-46.75-56.090-46.75-56.089 20.938-56.089 46.75c0 25.811 25.108 46.749 56.089 46.749z" />
<glyph unicode="&#xe91d;" d="M451.998 540.99v-18.704h37.457v-280.482h-37.457v-18.705h149.636v18.705h-37.409v299.186h-112.227z" />
<glyph unicode="&#xe91e;" d="M860.414 133.501c0-45.243-36.676-81.919-81.919-81.919h-552.953c-45.242 0-81.919 36.675-81.919 81.919v614.393c0 45.242 36.676 81.919 81.919 81.919h552.953c45.242 0 81.919-36.676 81.919-81.919v-614.393z" />
<glyph unicode="&#xe91f;" d="M696.136 562.778h-97.056l-41.428 41.679c-4.553 4.58-10.719 7.148-17.155 7.148h-76.96c-6.435 0-12.61-2.568-17.154-7.148l-41.429-41.679h-97.054c-13.397 0-24.266-10.932-24.266-24.413v-244.16c0-13.481 10.869-24.413 24.266-24.413h48.531c13.398 0 24.266 10.933 24.266 24.413 0 13.491-10.868 24.415-24.266 24.415h-12.137c-6.694 0-12.129 5.471-12.129 12.21v170.907c0 6.741 5.435 12.212 12.129 12.212h80.762l48.532 48.828h56.857l48.531-48.828h80.763c6.693 0 12.13-5.471 12.13-12.212v-170.909c0-6.739-5.437-12.21-12.13-12.21h-12.137c-13.399 0-24.266-10.925-24.266-24.415 0-13.351 10.673-24.172 23.896-24.377l-0.010-0.036h48.912c13.397 0 24.266 10.933 24.266 24.413v244.16c0 13.482-10.869 24.414-24.266 24.414z" />
<glyph unicode="&#xe920;" d="M492.058 433.396c26.759 0 48.531-21.901 48.531-48.828s-21.771-48.828-48.531-48.828-48.53 21.901-48.53 48.828 21.77 48.828 48.53 48.828zM492.058 482.224c-53.604 0-97.063-43.72-97.063-97.657s43.459-97.664 97.063-97.664 97.063 43.728 97.063 97.664c-0.001 53.938-43.459 97.657-97.063 97.657v0z" />
<glyph unicode="&#xe921;" glyph-name="compile" d="M803.799 603.291v-487.169c0-22.186-18.515-40.221-41.268-40.221h-600.621c-22.764 0-41.283 18.035-41.283 40.221v591.265c0 22.155 18.519 40.203 41.283 40.203v0.001h436.711l54.797 53.951h-491.508c-52.509 0-95.233-42.244-95.233-94.153v-591.266c0-51.927 42.724-94.17 95.233-94.17h600.621c52.482 0 95.218 42.245 95.218 94.171v468.343l-53.95 18.826zM344.492 410.718c5.338-5.271 99.167-97.644 102.877-101.27 4.776-4.712 3.204-13.276-4.699-15.54-6.303-1.824-133.017-37.482-143.839-40.532-7.106-1.977-13.096 4.042-11.154 10.983 2.172 7.711 38.503 132.974 41.255 141.923 2.039 6.54 10.287 9.63 15.56 4.436zM473.221 322.024l-115.828 114.007 384.541 377.138 115.816-114.002-384.529-377.143zM946.17 825.613l-77.209 76.030c-10.659 10.473-27.933 10.473-38.608 0l-39.084-38.481 116.082-113.791 38.821 38.219c10.686 10.505 10.686 27.544-0.001 38.023z" />
<glyph unicode="&#xe922;" glyph-name="more" d="M827.589 531.221c54.478 0 98.63-44.152 98.63-98.628s-44.152-98.627-98.63-98.627c-54.476 0-98.627 44.151-98.627 98.627s44.152 98.628 98.627 98.628zM511.98 531.221c54.477 0 98.627-44.152 98.627-98.628s-44.151-98.627-98.627-98.627c-54.477 0-98.628 44.151-98.628 98.627s44.152 98.628 98.628 98.628zM196.367 531.221c54.477 0 98.629-44.152 98.629-98.628s-44.152-98.627-98.629-98.627-98.628 44.151-98.628 98.627 44.151 98.628 98.628 98.628z" />
<glyph unicode="&#xe923;" glyph-name="refresh" d="M520.674 31.766c-237.142 0-430.055 192.917-430.055 430.051 0 237.146 192.913 430.055 430.055 430.055 173.436 0 329.039-103.299 396.462-263.178 5.091-12.162-0.585-26.185-12.741-31.31-12.131-5.136-26.188 0.563-31.303 12.745-59.893 142.133-198.242 233.96-352.417 233.96-210.796 0-382.268-171.469-382.268-382.271 0-210.767 171.471-382.265 382.268-382.265 154.103 0 292.427 91.757 352.321 233.75 5.148 12.183 19.169 17.864 31.303 12.718 12.158-5.114 17.84-19.144 12.718-31.299-67.376-159.714-222.976-262.954-396.342-262.954zM520.674 21.533c-242.775 0-440.288 197.51-440.288 440.284s197.512 440.288 440.288 440.288c177.546 0 336.866-105.76 405.89-269.434 7.272-17.375-0.894-37.422-18.194-44.715-4.215-1.784-8.677-2.691-13.247-2.691-13.784 0-26.134 8.206-31.467 20.905-58.281 138.31-192.913 227.688-342.982 227.688-205.14 0-372.035-166.896-372.035-372.038 0-205.139 166.894-372.032 372.035-372.032 150.006 0 284.599 89.297 342.893 227.494 5.358 12.681 17.698 20.871 31.439 20.871 4.578 0 9.049-0.913 13.289-2.71 8.375-3.522 14.892-10.127 18.324-18.581 3.427-8.442 3.365-17.717-0.174-26.113-68.99-163.543-228.264-269.214-405.772-269.214zM520.674 881.638c-231.49 0-419.822-188.331-419.822-419.822 0-231.488 188.331-419.818 419.822-419.818 169.259 0 321.131 100.76 386.913 256.698 1.417 3.363 1.442 7.079 0.068 10.463-1.371 3.379-3.972 6.016-7.325 7.426-1.725 0.732-3.507 1.097-5.324 1.097-5.497 0-10.437-3.284-12.585-8.366-61.497-145.791-203.492-239.999-361.747-239.999-216.426 0-392.501 176.073-392.501 392.498 0 216.428 176.075 392.504 392.501 392.504 158.322 0 300.356-94.292 361.846-240.219 2.139-5.092 7.082-8.375 12.6-8.374 1.814 0 3.593 0.362 5.283 1.079 6.942 2.927 10.207 10.97 7.291 17.935-65.807 156.048-217.726 256.895-387.021 256.895zM926.834 581.283h-262.808c-13.209 0-23.894 10.7-23.894 23.891 0 13.206 10.684 23.889 23.894 23.889h238.914v238.919c0 13.188 10.688 23.889 23.894 23.889 13.214 0 23.894-10.702 23.894-23.889v-262.808c-0.002-13.192-10.681-23.892-23.895-23.892zM926.834 571.050h-262.808c-18.818 0-34.127 15.308-34.127 34.124s15.31 34.122 34.127 34.122h228.681v228.686c0 18.816 15.31 34.122 34.127 34.122s34.127-15.307 34.127-34.122v-262.808c-0.002-18.817-15.311-34.125-34.128-34.125zM664.026 618.831c-7.533 0-13.661-6.127-13.661-13.656 0-7.532 6.128-13.658 13.661-13.658h262.808c7.533 0 13.661 6.127 13.661 13.658v262.808c0 7.529-6.128 13.656-13.661 13.656s-13.661-6.127-13.661-13.656v-249.152h-249.146z" />
<glyph unicode="&#xe924;" d="M913.144 455.062c0 0 19.347-61.499-14.52-118.825-33.856-57.327-87.128-118.825-87.128-118.825l14.52 89.128c0 0-113.462-83.817-188.81-103.977s-185.689-29.526-261.418 14.85c-75.727 44.375-188.809 178.238-188.809 178.238s115.496-102.234 203.331-118.826c87.834-16.59 183.48-24.006 217.853-14.848 34.371 9.158 145.349 50.771 188.794 89.111 43.441 38.354 116.188 103.975 116.188 103.975z" />
<glyph unicode="&#xe925;" d="M557.321 534.928c28.077 0 50.842-23.265 50.842-51.98 0-28.714-22.764-51.981-50.842-51.981s-50.824 23.267-50.824 51.981c0 28.715 22.747 51.98 50.824 51.98z" />
<glyph unicode="&#xe926;" d="M506.498 564.643c33.148 0 63.051-14.194 84.213-36.975 19.814-21.318 31.972-50.135 31.972-81.849 0-65.625-52.012-118.827-116.185-118.827s-116.187 53.203-116.187 118.827c0 65.62 52.015 118.824 116.187 118.824z" />
<glyph unicode="&#xe927;" d="M85.312 380.799c0 0-19.332 61.499 14.522 118.809 33.872 57.326 87.145 118.824 87.145 118.824l-14.521-89.111c0 0 113.46 83.801 188.809 103.961 75.331 20.178 185.689 29.525 261.415-14.85 75.729-44.373 188.813-178.237 188.813-178.237s-115.498 102.233-203.333 118.825c-87.834 16.608-183.482 24.023-217.853 14.865s-145.369-50.771-188.811-89.127c-43.441-38.337-116.186-103.959-116.186-103.959z" />
<glyph unicode="&#xe928;" d="M606.558 480.205c0-27.196-22.039-49.238-49.22-49.238-27.196 0-49.237 22.042-49.237 49.238 0 27.18 22.041 49.221 49.237 49.221 27.181 0 49.22-22.041 49.22-49.221z" />
<glyph unicode="&#xe929;" glyph-name="vercode" d="M722.737 15.796h-428.041c-70.749 0-128.308 66.488-128.308 148.213v587.797c0 81.724 57.559 148.212 128.308 148.212h428.042c70.749 0 128.308-66.487 128.308-148.212v-587.797c-0.001-81.725-57.56-148.213-128.309-148.213zM294.696 875.459c-57.207 0-103.749-55.47-103.749-123.652v-587.797c0-68.183 46.541-123.653 103.749-123.653h428.041c57.208 0 103.75 55.47 103.75 123.653v587.797c0 68.182-46.541 123.652-103.749 123.652h-428.042zM438.226 302.183h-56.162v211.657c-20.521-19.187-44.705-33.377-72.55-42.572v50.966c14.655 4.797 30.579 13.89 47.768 27.281s28.98 29.012 35.376 46.868h45.569v-294.201zM522.969 377.532l55.963 5.796c1.599-12.66 6.327-22.685 14.19-30.080 7.86-7.395 16.919-11.093 27.182-11.093 11.723 0 21.65 4.762 29.78 14.29 8.125 9.525 12.192 23.884 12.192 43.071 0 17.988-4.032 31.479-12.091 40.473-8.064 8.994-18.557 13.491-31.479 13.491-16.124 0-30.579-7.129-43.371-21.385l-45.569 6.595 28.78 152.496h148.499v-52.564h-105.93l-8.794-49.766c12.522 6.262 25.314 9.394 38.374 9.394 24.914 0 46.033-9.062 63.357-27.182 17.319-18.122 25.983-41.64 25.983-70.552 0-24.117-6.995-45.638-20.986-64.556-19.056-25.852-45.504-38.774-79.346-38.774-27.051 0-49.101 7.261-66.155 21.785-17.057 14.522-27.251 34.043-30.579 58.561z" />
<glyph unicode="&#xe92a;" glyph-name="email" d="M881.439 785.945c-9.146 4.387-21.288 7.404-37.615 7.404h-663.689c-16.328 0-28.47-3.017-37.642-7.404-37.691-15.007-64.465-51.7-64.465-94.701v-408.425c0-42.703 26.402-79.247 63.669-94.451 9.097-4.491 21.386-7.653 38.438-7.653h663.688c17.050 0 29.34 3.163 38.437 7.653 37.27 15.203 63.668 51.748 63.668 94.451v408.425c0 43-26.796 79.694-64.49 94.701zM894.873 691.244v-408.425c0-6.606-1.344-12.911-3.662-18.722-3.29 3.841-7.030 7.753-11.617 11.768l-212.313 185.79 219.218 232.902c2.67 2.842 4.787 5.583 6.931 8.303 0.874-3.741 1.443-7.604 1.443-11.617zM843.824 742.295c4.686 0 9.147-0.847 13.462-2.018-1.272-2.469-3.592-6.083-7.953-10.719l-303.452-322.42c-18.172-19.32-49.63-19.32-67.803 0l-303.452 322.421c-4.362 4.636-6.679 8.25-7.952 10.719 4.311 1.172 8.776 2.018 13.464 2.018h663.688zM132.745 264.097c-2.318 5.811-3.662 12.116-3.662 18.722v408.425c0 4.012 0.573 7.875 1.446 11.617 2.145-2.72 4.236-5.46 6.929-8.303l219.221-232.902-212.289-185.79c-4.64-4.015-8.352-7.927-11.644-11.768zM180.136 231.768c-2.493 0-4.887 0.396-7.281 0.72 1.37 1.472 3.018 3.116 5.136 4.984l213.685 186.963 49.233-52.299c18.821-19.991 44.072-31.036 71.072-31.036 26.995 0 52.247 11.045 71.068 31.036l49.209 52.299 213.71-186.962c2.118-1.868 3.763-3.513 5.135-4.984-2.392-0.324-4.788-0.72-7.278-0.72h-663.689z" />
<glyph unicode="&#xe92b;" glyph-name="enterauthe" d="M56.799 634.528l37.763-49.965c0 0 77.852 61.933 103.81 30.961 25.958-30.961 125.042-404.835 158.117-473.804 28.863-60.491 108.499-140.452 195.821-83.342 87.278 57.109 377.5 307.128 429.455 602.396 51.91 295.17-349.249 233.334-391.745-23.828 106.212 64.339 162.898-26.137 108.553-128.581-54.253-102.348-103.822-169.104-129.774-169.104-25.904 0-45.835 68.492-75.517 188.205-30.69 123.757-30.501 346.675-158.068 321.404-120.304-23.828-278.416-214.342-278.416-214.342z" />
<glyph unicode="&#xe92c;" glyph-name="cominfo" d="M947.291 473.314c0-21.255-17.41-38.487-38.892-38.487-10.247 0-19.491 4-26.443 10.409l-0.092-0.092-349.418 345.75-348.655-344.976c-7.017-6.859-16.656-11.091-27.3-11.091-21.48 0-38.892 17.231-38.892 38.487 0 10.901 4.595 20.734 11.951 27.737l374.859 370.955c7.080 7.284 17.016 11.827 28.037 11.827v0 0c0.009 0 0.009 0 0.009 0 0.7 0 1.381-0.023 2.063-0.055 0.1-0.009 0.202-0.019 0.313-0.028 0.588-0.033 1.178-0.079 1.749-0.138 0.038-0.004 0.074-0.009 0.111-0.013 9.52-1.022 18.010-5.451 24.197-12.016l0.019 0.021 153.035-151.432v35.375c0 21.25 17.412 38.486 38.892 38.486s38.892-17.236 38.892-38.486v-112.349l145.133-143.624-0.092-0.092c6.484-6.874 10.524-16.030 10.524-26.168zM869.507 409.167v-269.403c0-21.251-17.412-38.482-38.892-38.482h-77.784v307.885h-155.567v-307.885h-362.989c-21.481 0-38.893 17.232-38.893 38.482v269.403l337.064 333.55 337.061-333.55zM467.626 409.167h-155.568v-153.943h155.567v153.943z" />
<glyph unicode="&#xe92d;" glyph-name="manage" d="M789.805 1.093h-570.491c-35.011 0-63.388 26.058-63.388 58.209v702.721c0 32.151 28.376 58.208 63.388 58.208h158.468v-60.636h-126.777c-17.501 0-31.692-13.028-31.692-29.099v-642.096c0-16.070 14.191-29.099 31.692-29.099h507.108c17.501 0 31.693 13.028 31.693 29.099v642.097c0 16.070-14.192 29.099-31.693 29.099h-126.775v60.636h158.467c35.012 0 63.389-26.056 63.389-58.208v-702.722c0.001-32.151-28.376-58.209-63.388-58.209zM377.782 584.977h348.639v-29.11h-348.639v29.11zM377.782 497.669h348.639v-29.098h-348.639v29.098zM377.782 410.352h348.639v-29.098h-348.639v29.098zM377.782 323.046h348.639v-29.109h-348.639v29.109zM726.422 119.324h-348.639v29.1h348.639v-29.1zM377.782 235.739h348.639v-29.097h-348.639v29.097zM282.702 585.577h31.697v-29.099h-31.697v29.099zM282.702 498.282h31.697v-29.11h-31.697v29.11zM282.702 410.966h31.697v-29.1h-31.697v29.1zM282.702 323.658h31.697v-29.108h-31.697v29.108zM314.4 119.937h-31.697v29.099h31.697v-29.099zM282.702 236.353h31.697v-29.109h-31.697v29.109zM694.726 728.673c17.506 0 31.691-13.028 31.691-29.103s0-56.387 0-56.387h-443.715c0 0 0 40.311 0 56.387s14.186 29.103 31.691 29.103h95.080c0 0 0.386 41.395 0.386 88.691 0 49.106 41.219 90.178 94.7 90.178s96.152-43.171 96.152-90.466c0-50.929-1.065-88.402-1.065-88.402h95.080zM504.56 820.23c-17.505 0-31.698-13.028-31.698-29.103 0-16.070 14.192-29.104 31.698-29.104s31.698 13.034 31.698 29.104c-0.001 16.075-14.193 29.103-31.698 29.103z" />
<glyph unicode="&#xe92e;" glyph-name="accountsecurity" d="M513.674 879.869l98.909-98.218h144.976l49.451-49.108v-441.981c0 0-171.708-247.351-293.336-245.537-121.634 1.816-296.726 245.537-296.726 245.537v441.98l49.453 49.108h148.362l98.911 98.219z" />
<glyph unicode="&#xe92f;" glyph-name="share" d="M426.827 569.169h-288.672c-12.593-39.569-19.396-81.721-19.396-125.463 0-54.439 10.532-106.416 29.66-154.015l253.786 253.787c7.256 9.431 15.516 18.047 24.622 25.691zM902.784 626.57c-43.555 88.129-117.606 158.492-208.368 197.306v-358.782c0.914-7 1.39-14.138 1.39-21.388 0-8.924-0.725-17.678-2.099-26.215l209.077 209.080zM664.894 539.46v295.721c-41.692 14.143-86.371 21.815-132.843 21.815-56.784 0-110.893-11.456-160.144-32.177l235.926-235.924c22.656-11.85 42.192-28.844 57.061-49.435zM915.683 597.719l-253.797-253.802c-9.697-12.597-21.181-23.742-34.081-33.056h295.723c14.143 41.693 21.815 86.371 21.815 132.844 0.001 54.44-10.532 106.417-29.66 154.015zM532.052 279.95c-9.451 0-18.713 0.811-27.729 2.35l209.741-209.744c88.527 43.497 159.219 117.73 198.158 208.784h-358.783c-7-0.913-14.138-1.39-21.387-1.39zM532.052 607.461c5.492 0 10.919-0.275 16.271-0.803l-204.885 204.884c-87.795-45.109-157.335-120.729-194.628-212.853h330.249c16.622 5.683 34.447 8.772 52.994 8.772zM399.207 347.951v-295.722c41.693-14.143 86.372-21.815 132.844-21.815 54.095 0 105.761 10.4 153.114 29.298l-259.599 259.595c-9.876 8.462-18.73 18.079-26.358 28.643zM161.318 260.842c43.554-88.13 117.606-158.493 208.369-197.307v358.774c-0.914 7.004-1.391 14.143-1.391 21.395 0 8.923 0.725 17.677 2.098 26.213l-209.076-209.076z" />
<glyph unicode="&#xe930;" glyph-name="popularize" d="M949.068 602.744l-0.38-0.262c-0.012 0-0.012-0.012-0.024-0.012l-336.343-275.172c-6.273-4.286-13.873-6.833-22.093-6.833-7.975 0-15.373 2.38-21.546 6.44l-0.006-0.012-0.136 0.089c-0.024 0.012-0.036 0.030-0.060 0.042l-173.809 114.095-180.021-104.273v-156.667h712.302c21.463 0 38.853-17.129 38.853-38.264 0-21.123-17.39-38.257-38.853-38.257h-751.154c-21.456 0-38.853 17.134-38.853 38.257v612.167c0 21.134 17.397 38.261 38.853 38.261 21.459 0 38.853-17.126 38.853-38.261v-328.46l161.616 93.62 0.075-0.131c5.779 3.356 12.43 5.41 19.623 5.41 7.975 0 15.375-2.381 21.545-6.44l0.006 0.017 0.14-0.095c0.020-0.012 0.042-0.024 0.059-0.036l172.104-112.987 315.042 260.649c6.278 4.286 13.873 6.833 22.092 6.833 21.463 0 38.853-17.129 38.853-38.258 0-13.040-6.647-24.52-16.76-31.431l0.021-0.029z" />
</font>
</defs>
</svg>
